<?xml version="1.0" encoding="utf-8"?>
<svg viewBox="0 0 29.771 5.15" xmlns="http://www.w3.org/2000/svg">
  <path d="M 0 1.798 C 0.175 1.788 0.586 1.669 1.231 1.442 C 2.109 1.13 2.81 0.974 3.333 0.974 C 3.878 0.974 4.301 1.131 4.601 1.445 C 4.857 1.714 4.985 2.062 4.985 2.49 C 4.985 3.184 4.644 3.722 3.962 4.102 C 3.495 4.361 2.934 4.538 2.279 4.636 C 2.268 4.638 2.257 4.639 2.244 4.639 C 2.207 4.639 2.176 4.619 2.151 4.58 C 2.1 4.501 2.026 4.427 1.931 4.356 C 2.649 4.263 3.239 4.096 3.702 3.854 C 4.307 3.542 4.61 3.085 4.61 2.484 C 4.61 2.07 4.474 1.758 4.201 1.547 C 3.973 1.367 3.67 1.278 3.289 1.278 C 2.963 1.278 2.593 1.34 2.179 1.464 C 1.853 1.561 1.411 1.723 0.855 1.95 C 0.647 2.035 0.505 2.11 0.431 2.174 C 0.393 2.207 0.357 2.223 0.322 2.223 C 0.291 2.223 0.26 2.205 0.229 2.167 C 0.146 2.076 0.07 1.953 0 1.798 Z" style="fill: rgb(216, 216, 216); stroke-width: 0.2px;"/>
  <path d="M 9.633 0.068 C 9.734 0.124 9.845 0.207 9.965 0.316 C 9.99 0.337 10.002 0.363 10.002 0.394 C 10.002 0.429 9.986 0.452 9.952 0.462 C 9.864 0.497 9.785 0.546 9.717 0.608 C 8.836 1.412 8.202 2.022 7.813 2.437 C 7.745 2.505 7.711 2.561 7.711 2.605 C 7.711 2.646 7.741 2.686 7.801 2.726 C 8.708 3.391 9.533 4.098 10.275 4.846 C 10.298 4.873 10.309 4.892 10.309 4.902 C 10.309 4.917 10.3 4.936 10.281 4.961 C 10.236 5.011 10.179 5.065 10.111 5.125 C 10.094 5.142 10.08 5.15 10.067 5.15 C 10.053 5.15 10.033 5.138 10.008 5.113 C 9.328 4.371 8.52 3.653 7.584 2.958 C 7.439 2.846 7.367 2.731 7.367 2.611 C 7.367 2.503 7.43 2.382 7.556 2.248 C 7.872 1.921 8.48 1.318 9.379 0.437 C 9.484 0.328 9.569 0.205 9.633 0.068 Z" style="fill: rgb(216, 216, 216); stroke-width: 0.2px;"/>
  <path d="M 15.515 3.619 C 15.757 3.854 15.987 4.113 16.206 4.394 C 16.225 4.416 16.234 4.435 16.234 4.449 C 16.234 4.464 16.225 4.482 16.206 4.502 C 16.159 4.554 16.101 4.602 16.033 4.648 C 16.01 4.662 15.994 4.67 15.986 4.67 C 15.974 4.67 15.958 4.658 15.94 4.636 C 15.371 3.898 14.727 3.271 14.008 2.757 C 14.068 2.688 14.13 2.626 14.194 2.571 C 14.215 2.554 14.231 2.546 14.244 2.546 C 14.258 2.546 14.278 2.554 14.303 2.571 C 14.656 2.829 14.986 3.105 15.292 3.398 C 16.071 2.745 16.693 2.105 17.158 1.479 L 14.327 1.479 C 13.84 1.479 13.41 1.496 13.038 1.529 C 13.029 1.531 13.02 1.532 13.01 1.532 C 12.97 1.532 12.948 1.514 12.941 1.479 C 12.923 1.369 12.91 1.252 12.904 1.126 C 13.295 1.154 13.767 1.169 14.321 1.169 L 16.892 1.169 C 17.125 1.169 17.267 1.156 17.316 1.129 C 17.345 1.114 17.372 1.107 17.397 1.107 C 17.428 1.107 17.455 1.118 17.478 1.141 C 17.538 1.193 17.608 1.267 17.688 1.364 C 17.705 1.389 17.713 1.414 17.713 1.439 C 17.713 1.48 17.694 1.512 17.654 1.535 C 17.563 1.593 17.489 1.657 17.431 1.727 C 16.925 2.353 16.286 2.984 15.515 3.618 Z" style="fill: rgb(216, 216, 216); stroke-width: 0.2px;"/>
  <path d="M 19.273 2.397 C 19.558 2.434 19.994 2.453 20.581 2.453 L 22.6 2.453 C 23.189 2.453 23.644 2.447 23.964 2.434 C 24.024 2.434 24.054 2.458 24.054 2.505 L 24.054 2.744 C 24.054 2.796 24.024 2.822 23.964 2.822 C 23.743 2.813 23.464 2.809 23.127 2.809 L 22.612 2.809 L 20.138 2.809 L 19.412 2.865 C 19.365 2.865 19.335 2.839 19.322 2.788 C 19.289 2.661 19.273 2.531 19.273 2.397 Z" style=" fill: rgb(216, 216, 216); stroke-width: 0.2px;"/>
  <path d="M 27.654 1.907 C 28.377 2.105 29.069 2.399 29.728 2.788 C 29.757 2.804 29.771 2.822 29.771 2.84 C 29.771 2.846 29.77 2.855 29.768 2.865 C 29.733 2.954 29.695 3.03 29.654 3.095 C 29.635 3.119 29.616 3.132 29.598 3.132 C 29.583 3.132 29.566 3.126 29.545 3.113 C 28.962 2.737 28.332 2.451 27.654 2.254 L 27.654 3.86 C 27.654 3.895 27.66 4.299 27.672 5.07 C 27.672 5.121 27.649 5.147 27.601 5.147 C 27.564 5.149 27.523 5.15 27.48 5.15 C 27.435 5.15 27.392 5.149 27.353 5.147 C 27.301 5.147 27.275 5.119 27.275 5.063 C 27.294 4.555 27.303 4.157 27.303 3.87 L 27.303 0.853 C 27.303 0.497 27.28 0.213 27.232 0 C 27.42 0.015 27.566 0.038 27.669 0.071 C 27.713 0.084 27.734 0.109 27.734 0.146 C 27.734 0.167 27.726 0.196 27.71 0.236 C 27.672 0.318 27.654 0.513 27.654 0.819 Z" style="fill: rgb(216, 216, 216); stroke-width: 0.2px;"/>
</svg>